<svg xmlns="http://www.w3.org/2000/svg" width="96" height="96" viewBox="0 0 96 96" role="img" aria-label="Ancient Rune">

  <defs>
    <radialGradient id="glow-ancient-rune" cx="50%" cy="48%" r="55%">
      <stop offset="0" stop-color="hsl(110 80% 88%)" stop-opacity=".95"/>
      <stop offset=".68" stop-color="hsl(152 64% 70%)" stop-opacity=".72"/>
      <stop offset="1" stop-color="hsl(110 58% 54%)" stop-opacity=".08"/>
    </radialGradient>
    <linearGradient id="main-ancient-rune" x1="0" y1="0" x2="1" y2="1">
      <stop offset="0" stop-color="hsl(110 80% 88%)"/>
      <stop offset=".52" stop-color="hsl(110 58% 54%)"/>
      <stop offset="1" stop-color="hsl(110 45% 24%)"/>
    </linearGradient>
  </defs>
  <ellipse cx="48" cy="82" rx="28" ry="7" fill="#000" opacity=".18"/>

  <path d="M48 8l25 16v30L48 78 23 54V24z" fill="url(#glow-ancient-rune)" stroke="hsl(110 45% 24%)" stroke-width="5" stroke-linejoin="round"/>
  <path d="M48 18l14 10v19L48 63 34 47V28z" fill="url(#main-ancient-rune)" stroke="#fff" stroke-width="2" opacity=".9"/>
  <path d="M48 18v45M34 28l28 19M62 28L34 47" stroke="hsl(110 45% 24%)" stroke-width="2" opacity=".35"/>

  <path d="M46 -8l3 6 6 3-6 3-3 6-3-6-6-3 6-3z" fill="hsl(290 70% 78%)" opacity=".88"/>
  <circle cx="68" cy="8" r="3" fill="#fff8d6" opacity=".75"/>
</svg>
