<svg xmlns="http://www.w3.org/2000/svg" width="96" height="96" viewBox="0 0 96 96" role="img" aria-label="Childrens Toy">

  <defs>
    <radialGradient id="glow-childrens-toy" cx="50%" cy="48%" r="55%">
      <stop offset="0" stop-color="hsl(230 80% 88%)" stop-opacity=".95"/>
      <stop offset=".68" stop-color="hsl(272 64% 70%)" stop-opacity=".72"/>
      <stop offset="1" stop-color="hsl(230 58% 54%)" stop-opacity=".08"/>
    </radialGradient>
    <linearGradient id="main-childrens-toy" x1="0" y1="0" x2="1" y2="1">
      <stop offset="0" stop-color="hsl(230 80% 88%)"/>
      <stop offset=".52" stop-color="hsl(230 58% 54%)"/>
      <stop offset="1" stop-color="hsl(230 45% 24%)"/>
    </linearGradient>
  </defs>
  <ellipse cx="48" cy="82" rx="28" ry="7" fill="#000" opacity=".18"/>

  <path d="M23 29c0-10 8-18 18-18h14c10 0 18 8 18 18v28c0 10-8 18-18 18H41c-10 0-18-8-18-18z" fill="url(#main-childrens-toy)" stroke="hsl(230 45% 24%)" stroke-width="5"/>
  <path d="M35 14c3-7 23-7 26 0" fill="none" stroke="hsl(230 45% 24%)" stroke-width="5" stroke-linecap="round"/>
  <path d="M33 36h30M33 49h30" stroke="#fff" stroke-width="4" opacity=".4" stroke-linecap="round"/>

  <path d="M64 -15l3 6 6 3-6 3-3 6-3-6-6-3 6-3z" fill="hsl(50 70% 78%)" opacity=".88"/>
  <circle cx="68" cy="21" r="3" fill="#fff8d6" opacity=".75"/>
</svg>
