<svg xmlns="http://www.w3.org/2000/svg" width="96" height="96" viewBox="0 0 96 96" role="img" aria-label="Dimensional Scanner">

  <defs>
    <radialGradient id="glow-dimensional-scanner" cx="50%" cy="48%" r="55%">
      <stop offset="0" stop-color="hsl(254 80% 88%)" stop-opacity=".95"/>
      <stop offset=".68" stop-color="hsl(296 64% 70%)" stop-opacity=".72"/>
      <stop offset="1" stop-color="hsl(254 58% 54%)" stop-opacity=".08"/>
    </radialGradient>
    <linearGradient id="main-dimensional-scanner" x1="0" y1="0" x2="1" y2="1">
      <stop offset="0" stop-color="hsl(254 80% 88%)"/>
      <stop offset=".52" stop-color="hsl(254 58% 54%)"/>
      <stop offset="1" stop-color="hsl(254 45% 24%)"/>
    </linearGradient>
  </defs>
  <ellipse cx="48" cy="82" rx="28" ry="7" fill="#000" opacity=".18"/>

  <rect x="21" y="18" width="54" height="48" rx="10" fill="url(#main-dimensional-scanner)" stroke="hsl(254 45% 24%)" stroke-width="5"/>
  <rect x="31" y="27" width="34" height="19" rx="4" fill="hsl(254 45% 24%)" opacity=".72"/>
  <path d="M35 55h8M49 55h12M25 16l-7-7M71 16l7-7M25 68l-7 7M71 68l7 7" stroke="hsl(254 45% 24%)" stroke-width="4" stroke-linecap="round"/>
  <path d="M36 36h22" stroke="hsl(74 70% 78%)" stroke-width="4" stroke-linecap="round"/>

  <path d="M35 0l3 6 6 3-6 3-3 6-3-6-6-3 6-3z" fill="hsl(74 70% 78%)" opacity=".88"/>
  <circle cx="73" cy="22" r="3" fill="#fff8d6" opacity=".75"/>
</svg>
