<svg xmlns="http://www.w3.org/2000/svg" width="82" height="92" viewBox="0 0 82 92" role="img" aria-label="Forgotten notebook">
  <path d="M18 7h45c5 0 9 4 9 9v60c0 5-4 9-9 9H18z" fill="#4c1d95" stroke="#1f1235" stroke-width="4"/>
  <path d="M18 7v78" stroke="#f59e0b" stroke-width="6"/>
  <path d="M31 24h28M31 35h22M31 46h30" stroke="#ddd6fe" stroke-width="4" stroke-linecap="round"/>
  <path d="M18 13H8M18 28H8M18 43H8M18 58H8M18 73H8" stroke="#0f172a" stroke-width="5" stroke-linecap="round"/>
  <path d="M62 7c5 0 10 4 10 9v60c0 5-5 9-10 9" fill="none" stroke="#a78bfa" stroke-width="2" opacity=".7"/>
</svg>
